<?xml version="1.0" encoding="UTF-8"?>
<svg width="1000px" height="1000px" viewBox="0 0 1000 1000" version="1.1" xmlns="http://www.w3.org/2000/svg" xmlns:xlink="http://www.w3.org/1999/xlink">
    <!-- Generator: Sketch 54.1 (76490) - https://sketchapp.com -->
    <title>编组 31</title>
    <desc>Created with Sketch.</desc>
    <defs>
        <linearGradient x1="100%" y1="50%" x2="18.7699945%" y2="50%" id="linearGradient-1">
            <stop stop-color="#148A7E" offset="0%"></stop>
            <stop stop-color="#5DD1C5" offset="100%"></stop>
        </linearGradient>
        <linearGradient x1="100%" y1="50%" x2="18.7699945%" y2="50%" id="linearGradient-2">
            <stop stop-color="#23A295" offset="0%"></stop>
            <stop stop-color="#5DD1C5" offset="100%"></stop>
        </linearGradient>
        <linearGradient x1="100%" y1="50%" x2="18.7699945%" y2="50%" id="linearGradient-3">
            <stop stop-color="#23A295" offset="0%"></stop>
            <stop stop-color="#5DD1C5" offset="100%"></stop>
        </linearGradient>
        <linearGradient x1="100%" y1="50%" x2="18.7699945%" y2="50%" id="linearGradient-4">
            <stop stop-color="#23A295" offset="0%"></stop>
            <stop stop-color="#5DD1C5" offset="100%"></stop>
        </linearGradient>
        <linearGradient x1="100%" y1="50%" x2="18.7699945%" y2="50%" id="linearGradient-5">
            <stop stop-color="#148A7E" offset="0%"></stop>
            <stop stop-color="#5DD1C5" offset="100%"></stop>
        </linearGradient>
        <linearGradient x1="100%" y1="50%" x2="18.7699945%" y2="50%" id="linearGradient-6">
            <stop stop-color="#23A295" offset="0%"></stop>
            <stop stop-color="#5DD1C5" offset="100%"></stop>
        </linearGradient>
        <linearGradient x1="45.4937897%" y1="97.6886765%" x2="77.7351354%" y2="47.0262837%" id="linearGradient-7">
            <stop stop-color="#ACC5E9" offset="0%"></stop>
            <stop stop-color="#D3E3FB" offset="62.7469178%"></stop>
            <stop stop-color="#EAF2FF" offset="100%"></stop>
        </linearGradient>
        <linearGradient x1="65.9774176%" y1="35.85515%" x2="-18.9331574%" y2="79.9845655%" id="linearGradient-8">
            <stop stop-color="#40D3BA" offset="0%"></stop>
            <stop stop-color="#34C5AC" offset="35%"></stop>
            <stop stop-color="#15A189" offset="100%"></stop>
        </linearGradient>
        <linearGradient x1="54.5490389%" y1="65.7131927%" x2="34.5253029%" y2="-23.2607402%" id="linearGradient-9">
            <stop stop-color="#40D3BA" offset="0%"></stop>
            <stop stop-color="#34C5AC" offset="35%"></stop>
            <stop stop-color="#15A189" offset="100%"></stop>
        </linearGradient>
        <linearGradient x1="54.7758192%" y1="76.8333663%" x2="28.4446703%" y2="-69.2627001%" id="linearGradient-10">
            <stop stop-color="#40D3BA" offset="0%"></stop>
            <stop stop-color="#34C5AC" offset="35%"></stop>
            <stop stop-color="#15A189" offset="100%"></stop>
        </linearGradient>
        <linearGradient x1="39.3574152%" y1="40.942285%" x2="89.2614141%" y2="81.9081272%" id="linearGradient-11">
            <stop stop-color="#40D3BA" offset="0%"></stop>
            <stop stop-color="#34C5AC" offset="35%"></stop>
            <stop stop-color="#15A189" offset="100%"></stop>
        </linearGradient>
        <linearGradient x1="33.7599595%" y1="46.2549372%" x2="86.672211%" y2="60.5170557%" id="linearGradient-12">
            <stop stop-color="#F78E6B" offset="0%"></stop>
            <stop stop-color="#F9AA8F" offset="100%"></stop>
        </linearGradient>
        <linearGradient x1="27.2778597%" y1="30.7170396%" x2="81.8674399%" y2="62.2119733%" id="linearGradient-13">
            <stop stop-color="#CFDDF3" offset="0%"></stop>
            <stop stop-color="#A1B8E3" offset="100%"></stop>
        </linearGradient>
        <linearGradient x1="33.5705239%" y1="30.7170396%" x2="73.0420785%" y2="62.2119733%" id="linearGradient-14">
            <stop stop-color="#CFDDF3" offset="0%"></stop>
            <stop stop-color="#A1B8E3" offset="100%"></stop>
        </linearGradient>
        <linearGradient x1="44.3039317%" y1="30.7170396%" x2="57.988645%" y2="62.2119733%" id="linearGradient-15">
            <stop stop-color="#CFDDF3" offset="0%"></stop>
            <stop stop-color="#A1B8E3" offset="100%"></stop>
        </linearGradient>
        <linearGradient x1="36.5714286%" y1="62.5142857%" x2="124%" y2="25.1428571%" id="linearGradient-16">
            <stop stop-color="#635FA9" offset="0%"></stop>
            <stop stop-color="#312C8F" offset="100%"></stop>
        </linearGradient>
        <linearGradient x1="48.3108352%" y1="30.7170396%" x2="52.3690267%" y2="62.2119733%" id="linearGradient-17">
            <stop stop-color="#CFDDF3" offset="0%"></stop>
            <stop stop-color="#A1B8E3" offset="100%"></stop>
        </linearGradient>
        <linearGradient x1="44.6052329%" y1="30.7170396%" x2="57.5660749%" y2="62.2119733%" id="linearGradient-18">
            <stop stop-color="#CFDDF3" offset="0%"></stop>
            <stop stop-color="#A1B8E3" offset="100%"></stop>
        </linearGradient>
        <linearGradient x1="33.9996258%" y1="30.7170396%" x2="72.44027%" y2="62.2119733%" id="linearGradient-19">
            <stop stop-color="#CFDDF3" offset="0%"></stop>
            <stop stop-color="#A1B8E3" offset="100%"></stop>
        </linearGradient>
        <linearGradient x1="31.6275665%" y1="30.7170396%" x2="75.7670453%" y2="62.2119733%" id="linearGradient-20">
            <stop stop-color="#CFDDF3" offset="0%"></stop>
            <stop stop-color="#A1B8E3" offset="100%"></stop>
        </linearGradient>
        <linearGradient x1="47.6226972%" y1="75.6374585%" x2="53.7843864%" y2="-33.1960457%" id="linearGradient-21">
            <stop stop-color="#635FA9" offset="0%"></stop>
            <stop stop-color="#312C8F" offset="100%"></stop>
        </linearGradient>
        <linearGradient x1="75.2825838%" y1="128.095685%" x2="-19.1707953%" y2="-152.470294%" id="linearGradient-22">
            <stop stop-color="#F78E6B" offset="0%"></stop>
            <stop stop-color="#F9AA8F" offset="100%"></stop>
        </linearGradient>
        <linearGradient x1="14.3489713%" y1="31.9372884%" x2="100%" y2="61.439185%" id="linearGradient-23">
            <stop stop-color="#CFDDF3" offset="0%"></stop>
            <stop stop-color="#A1B8E3" offset="100%"></stop>
        </linearGradient>
        <linearGradient x1="0.00864304235%" y1="49.9461872%" x2="100%" y2="49.9461872%" id="linearGradient-24">
            <stop stop-color="#D6EFFA" offset="0%"></stop>
            <stop stop-color="#C4DDE8" offset="100%"></stop>
        </linearGradient>
        <linearGradient x1="-0.00516271954%" y1="50.1051948%" x2="99.9381539%" y2="50.1051948%" id="linearGradient-25">
            <stop stop-color="#8DA4D4" offset="0%"></stop>
            <stop stop-color="#6A84BA" offset="100%"></stop>
        </linearGradient>
        <linearGradient x1="141.158864%" y1="26.381113%" x2="-98.634252%" y2="86.2723915%" id="linearGradient-26">
            <stop stop-color="#F78E6B" offset="0%"></stop>
            <stop stop-color="#F9AA8F" offset="100%"></stop>
        </linearGradient>
    </defs>
    <g id="上传" stroke="none" stroke-width="1" fill="none" fill-rule="evenodd">
        <g id="画板" transform="translate(-264.000000, -2584.000000)">
            <g id="编组-31" transform="translate(264.000000, 2584.000000)">
                <rect id="矩形复制-29" x="0" y="0" width="1000" height="1000"></rect>
                <g id="编组-90" transform="translate(58.000000, 192.000000)">
                    <g id="figures" transform="translate(63.000000, 0.000000)" fill="#F4F9F9">
                        <path d="M756.88063,655.61746 C752.00855,661.416673 746.865799,665.462636 743.956085,667.485617 C739.55768,670.654955 734.347261,673.689427 728.5955,676.25187 C727.851155,676.589033 727.106809,676.926197 726.362464,677.195928 C720.949042,679.48864 715.264949,681.309323 709.44552,682.455679 C698.009667,684.815824 686.438477,684.478661 677.032657,679.690938 C674.867288,678.612015 672.837255,677.26336 670.942557,675.644975 C668.574185,673.689427 666.544152,671.396715 664.852458,668.834271 C664.446451,668.227377 664.040444,667.55305 663.634438,666.946156 C656.86766,655.61746 655.581973,640.4451 658.424019,628.104914 C660.589388,618.596901 664.852458,611.988496 670.942557,605.919552 C678.45368,598.367088 688.671514,591.556384 701.054716,580.902016 C707.212484,575.574831 713.843926,569.303589 720.949042,561.548827 C753.970916,525.404894 754.579925,502.477772 764.256417,504.028724 C784.962756,507.265494 792.947553,612.662823 756.88063,655.61746 L756.88063,655.61746 Z" id="Shape"></path>
                        <path d="M482.090763,411.497047 C481.955408,411.901996 481.820053,412.239452 481.684697,412.644401 C481.61702,412.846875 481.549342,412.981858 481.549342,413.11684 C481.549342,413.184332 481.549342,413.184332 481.481664,413.251823 C481.481664,413.319314 481.413987,413.386806 481.413987,413.454297 C481.413987,413.521788 481.346309,413.58928 481.346309,413.656771 C474.781576,431.204529 466.998645,448.414829 457.794483,465.085198 C457.523772,465.557638 457.253062,466.097569 456.982351,466.570009 C455.425765,469.404646 453.733823,472.239284 452.10956,475.073922 C448.657999,480.945671 445.003405,486.614947 441.281134,492.14924 L440.130614,493.836524 C400.133116,552.621511 349.848614,591.901491 345.381888,595.208568 C339.56161,599.460525 333.47062,603.64499 333.47062,603.64499 C329.206927,606.479628 322.980583,610.731584 315.129974,615.590963 C294.149899,628.549307 261.7323,646.232047 225.727784,655.005926 C215.846845,657.435615 205.695196,659.190391 195.47587,659.932796 C186.20403,660.675201 176.864513,660.60771 167.592673,659.595339 L165.562343,659.325374 C152.771266,657.705581 140.115543,654.263521 127.798209,648.391771 C124.346648,646.704487 121.09812,645.017202 117.984948,643.127444 C117.984948,643.127444 102.080698,633.678651 87.7330335,617.818178 C32.9141281,557.278416 31.0868313,483.712818 31.0868313,483.712818 C31.0868313,483.712818 30.8837983,475.343887 32.7787728,461.508156 L32.7787728,461.508156 C32.9818058,459.75338 33.3201941,457.931113 33.5909048,456.041354 L33.5909048,456.041354 C37.9899527,429.112296 49.901221,386.255273 82.3188206,344.275638 C83.3339855,342.993302 84.3491504,341.643475 85.431993,340.361139 L85.431993,340.361139 C86.5148356,338.94382 87.7330335,337.593992 87.7330335,337.593992 C98.2907485,325.040597 108.37472,316.806649 117.984948,310.597443 C144.920657,292.914703 168.607838,291.024944 189.926301,254.242145 C192.024309,250.665102 193.851606,247.155551 195.408192,243.645999 C220.516604,189.112969 187.760616,151.250308 219.636794,89.2257351 C221.464091,85.6486923 223.494421,82.0716494 225.727784,78.4271152 C230.126832,71.2730295 235.202656,64.0514525 241.022935,57.0998409 C241.429001,56.55991 241.902745,56.019979 242.376489,55.480048 C255.505955,39.9570319 271.816271,25.7163519 290.562983,15.5251544 C291.23976,15.1876975 291.848859,14.8502407 292.525635,14.5127838 C299.767145,10.7332668 307.279365,7.56117223 315.129974,5.19897413 C323.92807,2.49931916 333.132232,0.744543428 342.674782,0.204612434 C343.554592,0.137121059 344.502079,0.0696296851 345.381888,0.0696296851 C375.836836,-1.0102323 402.704867,10.5982841 424.632429,25.9863174 C434.310335,32.7354548 441.822555,39.2821181 447.507479,44.6139367 C448.0489,45.1538677 451.365105,48.2584709 454.952021,52.0379879 C458.74197,56.019979 472.683568,70.7330986 484.053416,91.1154936 C487.234266,96.8522604 492.31009,106.773492 497.115204,121.486612 C497.318237,122.161526 497.52127,122.836439 497.724303,123.443862 C498.807146,127.020905 499.889988,130.800422 500.972831,134.917395 C525.607499,232.239957 494.949519,376.469024 482.090763,411.497047 L482.090763,411.497047 Z" id="Shape"></path>
                        <path d="M789.989479,359.306184 L789.989479,359.306184 C789.921836,359.508833 789.921836,359.779031 789.854194,359.981679 C786.133866,382.137908 780.248983,402.808048 773.349465,421.721902 C753.868473,475.288638 726.135117,513.994489 714.703563,528.922924 C705.368921,541.216929 695.087287,553.105637 683.993945,564.3864 C674.456376,574.113525 664.377668,583.435353 653.757822,592.284335 C630.083006,611.941233 603.905424,628.896152 576.23971,642.0683 C566.363929,646.796764 556.217579,650.984831 546.003587,654.632503 C539.848135,656.794086 533.625041,658.820571 527.401946,660.576857 C526.252026,660.914605 525.102107,661.252352 523.952187,661.52255 L523.952187,661.52255 C501.156721,667.737102 477.820117,671.047026 454.348228,670.979477 C449.816191,670.979477 445.284155,670.844378 440.819761,670.50663 C440.143338,670.439081 439.33163,670.439081 438.519922,670.371531 C437.843499,670.303982 437.167075,670.303982 436.42301,670.236433 C433.040893,669.966235 428.847068,669.628487 424.112105,669.155641 C401.654851,666.65631 368.104254,659.833813 361.204736,639.636519 C353.358226,616.737246 385.488334,593.702874 424.112105,552.362593 C426.614871,549.660614 429.117638,546.958635 431.688046,544.121557 C432.36447,543.378512 432.973251,542.635468 433.649674,541.959973 C440.48155,534.259333 447.44871,525.950747 454.41587,516.899117 C459.894899,509.806422 465.238643,502.30843 470.582387,494.270042 C506.771035,439.554964 522.396414,385.110085 529.701785,349.44396 C529.972355,348.22807 530.175282,347.012179 530.445851,345.863838 L530.445851,345.863838 C532.542763,335.19102 533.89561,326.342039 534.842603,319.992388 C555.202945,179.96232 492.633787,94.3095811 541.336266,50.6050687 C542.824398,49.2540791 544.447814,47.9706391 546.003587,46.8222979 C555.608799,39.7971522 566.363929,36.2170299 576.23971,34.3931939 C587.738906,32.2991601 598.155825,32.704457 604.37892,32.9071054 C621.627714,33.5150507 638.132443,38.2435142 653.757822,46.0792537 C664.310026,51.348113 674.388733,58.1030608 683.993945,65.9388003 C723.294139,97.957253 754.612539,148.754461 773.349465,197.795382 C778.42264,211.102629 782.548822,224.342327 785.728012,236.974079 C796.550785,280.611042 796.212573,322.018872 789.989479,359.306184 L789.989479,359.306184 Z" id="Shape"></path>
                        <path d="M201.72047,67.3307385 C201.246945,68.2084326 200.705774,69.0861266 200.232249,69.9638207 C194.617595,79.9560299 187.988245,92.1762317 180.547137,107.164546 C179.329501,110.877867 175.338362,123.165583 173.038383,138.356442 C167.423729,175.827227 178.517744,188.249973 174.661898,212.015228 C173.714848,217.821511 172.091333,223.087676 169.791354,228.016265 C169.453122,228.75893 169.11489,229.434079 168.776658,230.109228 C162.553186,242.261915 152.406221,252.861759 139.282814,266.567289 C136.847542,269.132856 131.706413,274.466535 124.806477,281.015483 C124.197659,281.623118 123.588841,282.230752 122.912377,282.838386 C107.759576,297.084036 85.2333146,316.123245 63.8570421,325.372791 C62.9776385,325.77788 62.0305885,326.115455 61.1511849,326.520544 C48.8395342,331.381619 37.0690551,332.731918 27.4632618,327.803328 C23.269183,325.64285 19.4133364,322.267104 16.0986612,317.946149 C15.6927826,317.406029 15.2192576,316.798395 14.813379,316.19076 L14.813379,316.19076 C3.17819272,299.514573 -2.1658754,270.955759 0.810567603,243.814758 L0.810567603,243.814758 C0.945860467,242.73452 1.08115333,241.721796 1.14879976,240.709072 C3.58407131,222.074952 10.0104823,204.386041 20.9015579,192.098324 C20.9692043,192.030809 20.9692043,192.030809 21.0368507,191.963294 C21.9839008,191.153115 22.9309508,190.275421 23.8780009,189.465242 C66.0893744,152.197002 78.1304393,126.203755 80.7010037,108.852419 C81.2421751,105.071583 82.3921645,95.2144035 87.803879,83.4668061 C89.4273934,79.9560299 96.0567437,64.7651713 118.041834,47.9539544 C142.19161,29.5223792 173.511908,17.8422968 195.564645,15.816849 C203.073399,15.1416997 209.49981,15.5467893 214.23506,17.2346625 C215.046817,17.5047222 215.790928,17.8422968 216.535039,18.2473864 C218.158553,19.0575655 219.443835,20.1378043 220.390886,21.353073 C225.8026,28.1720807 218.361493,37.9617451 201.72047,67.3307385 L201.72047,67.3307385 Z" id="Shape"></path>
                        <path d="M64.2401936,110.293424 C57.0231485,125.000969 40.2957915,141.538486 26.5361914,138.014097 C17.9701658,135.845243 11.2252638,126.01762 7.98771083,113.682259 C7.78536377,112.868939 7.58301671,112.055618 7.44811867,111.242298 C4.88505591,99.3135972 5.62699513,85.3515955 11.3601618,73.8973319 C17.2956756,61.9008546 29.3690502,51.1243581 40.9028327,47.667746 C41.5773229,47.4644159 42.3192621,47.2610858 42.9937523,47.1255323 C47.1755915,46.1766584 51.2225327,46.3122119 54.7973308,47.7355227 C61.0026407,50.1754842 65.386827,56.3431646 67.9498897,64.3408161 C68.2196858,65.0863599 68.4220329,65.8319037 68.6243799,66.6452241 L68.6243799,66.6452241 C72.06428,79.7261287 70.7827486,96.9414125 64.2401936,110.293424 L64.2401936,110.293424 Z" id="Shape"></path>
                        <path d="M803.973899,152.125033 L803.973899,152.125033 C803.568086,152.937268 803.094637,153.681816 802.688824,154.426365 C799.307048,160.179693 795.65473,163.767063 792.070048,164.511611 C781.518908,166.542198 775.972795,142.51359 745.266272,103.32327 C744.860459,102.78178 744.454645,102.240291 743.981197,101.698801 C739.787795,96.4192758 735.18858,90.869006 730.048281,85.1156774 C716.521178,69.9539646 704.617327,58.921111 694.945448,50.5957062 C693.86328,49.6480992 692.781112,48.7004921 691.698944,47.8205713 C675.331149,33.8772103 666.335625,27.7854507 668.567597,20.6783978 C669.717401,16.9556558 673.640261,13.5713449 679.524551,10.79621 C680.403813,10.3900927 681.283074,9.98397537 682.229972,9.57785806 C701.438458,1.72625677 736.811832,-0.101271119 765.895104,13.2329138 C766.774365,13.6390311 767.653627,14.0451485 768.600524,14.518952 L768.600524,14.518952 C776.310973,18.3770664 783.480338,23.3181603 789.702805,29.5452924 C802.824095,42.6764187 810.061095,59.8010319 813.172329,77.3317623 L813.172329,77.3317623 C813.3076,78.2793694 813.510506,79.1592902 813.645777,80.1068973 C817.771544,107.858247 812.157796,136.354144 803.973899,152.125033 L803.973899,152.125033 Z" id="Shape"></path>
                    </g>
                    <g id="Group-80-Copy" transform="translate(0.000000, 319.000000)" fill-rule="nonzero">
                        <path d="M18.3930965,304.408398 C18.3930965,304.408398 30.3637371,264.161871 46.6495428,264.161871 C62.9353485,264.161871 86.7906131,211.829943 106.373721,211.829943 C125.956829,211.829943 143.475539,241.592922 168.92211,241.592922 C194.368682,241.592922 216.360254,271.72776 233.520561,271.72776 C250.680869,271.72776 259.024477,242.951636 283.410177,242.951636 C307.795877,242.951636 335.349855,304.451305 335.349855,304.451305 L18.3930965,304.408398 Z" id="Path" fill="#E6E6E6"></path>
                        <path d="M109.75704,261.244212 C98.2881625,272.028107 62.6916348,227.562417 24.414257,220.868964 C-13.8631207,214.175512 24.1848795,183.940558 27.6255427,163.874504 C31.0662058,143.808449 -5.34747938,125.029596 0.673681165,108.095734 C6.69484171,91.1618716 26.8800656,90.2751322 39.0944199,111.943039 C51.3087742,133.610945 42.5494192,91.9198908 53.7172384,89.9032738 C64.8850576,87.8866567 78.7480629,152.618634 89.1847412,141.491484 C99.6214195,130.364335 105.112144,95.0663855 119.863988,143.922867 C134.615831,192.779348 134.415126,238.045965 109.75704,261.244212 Z" id="Path" fill="#4B8AD3"></path>
                        <path d="M51.8965541,203.305803 L53.4735247,199.844659 C67.4082106,210.514136 87.6221067,210.885995 94.1737028,210.700065 C89.442791,195.725611 83.6079997,181.40906 76.970387,173.857473 C70.1607411,166.034143 62.3619046,159.855572 54.0326325,153.305142 C50.1188781,150.215856 46.1764516,147.069361 42.3057055,143.722635 C39.0657477,144.680886 29.016144,147.226686 25.9912277,142.8645 L28.3136753,140.175678 C29.3458743,141.677414 34.0481139,141.605902 38.7073453,140.533234 C30.2031269,132.997963 23.089759,124.032852 17.6906278,114.045469 L20.256789,111.771412 C29.460563,129.148644 42.7787967,139.689401 55.6526114,149.886904 L57.4589596,151.317129 C59.2653077,149.357721 63.6234811,143.279266 60.5698925,131.737351 L63.4371118,130.435846 C66.6914058,142.764385 62.6772987,150.215856 60.1111374,153.491071 C66.8836548,158.701336 73.1737628,164.507504 78.90576,170.839699 C82.4186638,175.164545 85.3490047,179.929531 87.6221067,185.013227 C91.7795747,181.72371 105.011792,169.910052 105.183825,152.203869 L108.294758,152.203869 C108.137061,168.966104 97.9871045,180.636739 92.0232883,186.057291 C90.9050728,187.072751 89.9445543,187.859374 89.156069,188.417162 C101.485112,216.420965 109.226604,259.399222 109.642351,261.658977 L106.617435,262.560019 C103.598688,246.398737 99.770939,230.398338 95.1485574,214.618882 C90.1165875,214.976438 67.6662603,215.376901 51.8965541,203.305803 Z" id="Path" fill="#F2F2F2"></path>
                        <path d="M143.432531,254.779596 C126.028509,258.541087 110.774903,173.871775 78.0886025,160.09871 C29.2598577,139.517774 81.428913,107.18039 93.8583087,87.3431713 C106.287704,67.5059525 73.8737901,20.3943456 87.8371482,5.82035425 C101.800506,-8.75363707 124.680916,4.8334991 128.953073,37.7286709 C133.22523,70.6238426 141.425477,17.8771498 154.758047,23.7124672 C168.090617,29.5477847 155.632549,111.528274 171.961363,106.665509 C188.290177,101.802745 209.679633,66.4332838 205.077746,131.422701 C200.475859,196.412119 180.907087,246.670221 143.432531,254.779596 Z" id="Path" fill="#FFC7C7"></path>
                        <path d="M103.965257,148.685515 L107.219551,145.968088 C118.143656,167.864831 140.479295,182.796378 147.848048,187.301587 C149.037944,167.278439 148.708214,147.097966 144.651099,133.968502 C140.436286,120.352761 134.40079,107.866898 128.021227,94.6516203 C124.99631,88.4015377 121.971394,82.0513393 119.104175,75.5581184 C115.061395,74.2995205 102.789697,69.837219 101.298743,62.8577217 L105.040464,61.5419148 C105.556563,63.973297 110.774903,67.1626985 116.509341,69.4081515 C110.366015,55.2024506 106.328674,40.1800744 104.524365,24.8137404 L108.352102,24.1415347 C111.118969,50.1001159 121.412286,71.4104663 131.289857,92.0057043 C131.748612,92.963955 132.207367,93.9508101 132.723466,94.866154 C135.590686,93.9937169 143.03112,90.3609457 144.60809,75.3149802 L148.450164,75.9871859 C146.758505,92.048611 139.088693,97.4405588 134.816537,99.2569443 C140.08362,109.856717 144.577693,120.821604 148.263795,132.066303 C150.296655,139.258996 151.513292,146.656724 151.890828,154.12037 C157.926324,153.448164 177.695801,149.829695 185.551982,130.235615 L188.992645,132.523975 C181.59522,151.116898 165.266406,156.837797 156.306345,158.51116 C154.629022,158.840112 153.224084,159.026041 152.163213,159.126157 C153.840537,199.172453 143.991638,252.577049 143.461203,255.394592 L139.705145,254.221808 C139.791162,253.721229 145.281887,224.001157 147.532654,192.579116 C141.511494,189.146577 116.337308,173.442708 103.965257,148.685515 Z" id="Path" fill="#E6E9F8"></path>
                        <path d="M83.063228,304.408398 C83.063228,304.408398 110.617206,223.157324 161.496012,223.157324 C212.374819,223.157324 211.184923,277.505869 241.993194,277.505869 C272.801466,277.505869 264.328833,263.847221 290.821939,263.847221 C317.315046,263.847221 335.349855,304.465607 335.349855,304.465607 L83.063228,304.408398 Z" id="Path" fill="#F2F2F2"></path>
                    </g>
                    <g id="Flower" transform="translate(748.000000, 445.000000)" fill-rule="nonzero">
                        <g id="Layer_6">
                            <g id="Layer_18">
                                <path d="M75.2951613,129.167213 C75.2951613,129.167213 81.7490323,94.08 47.7145161,75.2970492 C13.68,56.5140984 12.0803226,56.7344262 5.35064516,54.5862295 C1.48935484,53.2642623 -2.48225806,56.0183607 1.98580645,61.6367213 C6.45387097,67.255082 3.91645161,68.6872131 12.8525806,71.1659016 C21.7887097,73.6445902 23.1677419,84.5508197 27.6358065,87.2498361 C32.103871,89.9488525 36.0203226,90.664918 49.7003226,96.5586885 C62.1116129,101.901639 72.7025806,116.994098 72.7025806,122.337049 C72.7025806,127.68 84.8380645,129.442623 84.8380645,129.442623 L75.2951613,129.167213 Z" id="路径" fill="url(#linearGradient-1)"></path>
                                <path d="M74.0816129,124.264918 C74.0816129,124.264918 82.7419355,91.9868852 52.9548387,74.5259016 C23.1677419,57.064918 12.7422581,57.2852459 6.84,55.1921311 C3.47516129,53.9803279 12.7422581,58.1665574 16.6035484,63.3442623 C20.4648387,68.5219672 19.5270968,67.3652459 26.5325806,71.2209836 C34.6412903,75.682623 38.006129,80.0340984 42.75,80.9154098 C49.6451613,82.237377 47.6041935,89.3980328 59.5741935,94.7960656 C70.3858065,99.6983607 71.7648387,112.807869 71.7648387,117.765246 C71.7648387,122.722623 82.3558065,124.375082 82.3558065,124.375082 L74.0816129,124.264918 Z" id="路径" fill="url(#linearGradient-2)"></path>
                                <path d="M104.089355,119.527869 L107.454194,116.333115 C109.053871,114.845902 111.039677,113.744262 113.190968,113.193443 C123.726774,110.439344 156.823548,100.083934 170.55871,75.0767213 C170.669032,74.8563934 170.55871,74.5809836 170.338065,74.4708197 L170.282903,74.4708197 C170.227742,74.4708197 170.172581,74.4157377 170.117419,74.4157377 C165.539032,74.0852459 141.985161,73.6996721 110.488065,100.52459 C109.936452,100.965246 109.384839,101.516066 108.943548,102.066885 C108.17129,103.168525 106.847419,105.041311 106.240645,106.032787 C105.413226,107.464918 107.068065,109.888525 104.861613,112.036721 C102.655161,114.184918 97.9112903,119.527869 97.9112903,119.527869 L101.772581,122.392131 L104.089355,119.527869 Z" id="路径" fill="url(#linearGradient-3)"></path>
                                <path d="M86.1619355,117.434754 C86.1619355,117.434754 95.2083871,36.6845902 70.5512903,11.2918033 C47.8248387,-12.0629508 47.493871,9.41901639 47.5490323,13.0544262 C47.5490323,13.384918 47.6593548,13.6603279 47.7696774,13.9357377 C53.1203226,23.9055738 54.9958065,35.4177049 53.0651613,46.5442623 C50.7483871,58.2216393 67.4622581,56.6793443 68.8964516,68.1914754 C70.3306452,79.7036066 76.1777419,97.44 75.5709677,105.592131 C74.9641935,113.744262 74.9090323,121.676066 74.9090323,121.676066 L84.0106452,121.951475 L86.1619355,117.434754 Z" id="路径" fill="url(#linearGradient-4)"></path>
                                <path d="M86.0516129,117.710164 C86.1067742,117.544918 86.1619355,117.32459 86.2170968,117.159344 C86.7687097,111.871475 94.3809677,35.8032787 70.5512903,11.2918033 C47.9903226,-11.9527869 47.6593548,9.08852459 47.7696774,12.8891803 C47.8248387,13.3298361 48.0454839,13.7704918 48.266129,14.1560656 C49.9209677,16.5796721 57.3677419,27.1554098 63.9870968,25.9436066 C82.2454839,22.6937705 66.1383871,44.6163934 76.0674194,56.3488525 C84.0106452,65.602623 81.3629032,97.5501639 80.756129,105.757377 C80.37,110.384262 79.5977419,114.900984 78.4393548,119.417705 C78.2187097,120.574426 78.9909677,121.676066 80.0941935,121.896393 C80.1493548,121.896393 80.2045161,121.896393 80.2596774,121.896393 C80.4251613,121.896393 80.5354839,121.951475 80.7009677,121.951475 L82.3558065,121.951475 C83.3487097,122.006557 84.2312903,121.51082 84.6725806,120.629508 L86.0516129,117.710164 Z" id="路径" fill="url(#linearGradient-5)"></path>
                                <path d="M94.9325806,122.392131 C94.9325806,122.392131 96.5322581,100.028852 109.605484,86.3685246 C113.246129,82.6229508 117.879677,80.0340984 122.954516,78.877377 C126.870968,77.9960656 133.269677,74.8563934 138.840968,64.3908197 C138.840968,64.3908197 149.376774,49.5186885 159.912581,45.0019672 C170.448387,40.4852459 159.912581,39.9344262 159.912581,39.9344262 C159.912581,39.9344262 129.794516,45.6629508 110.488065,63.2891803 C109.274516,64.3908197 108.005806,65.437377 106.626774,66.3186885 C101.607097,69.7337705 87.7616129,82.6229508 88.3683871,120.243934 L94.9325806,122.392131 Z" id="路径" fill="url(#linearGradient-6)"></path>
                                <path d="M121.079032,120.574426 C121.079032,120.574426 121.520323,117.87541 117.934839,117.930492 C114.790645,118.040656 61.6151613,117.655082 61.6151613,117.655082 C61.6151613,117.655082 59.1329032,117.655082 59.2983871,119.527869 C59.463871,121.400656 67.5174194,165.631475 68.2896774,166.567869 C68.6206452,167.118689 69.1722581,167.559344 69.8341935,167.72459 C70.8270968,168 108.17129,167.779672 108.17129,167.779672 C109.053871,167.669508 109.715806,166.953443 109.770968,166.072131 C109.715806,166.127213 121.189355,121.125246 121.079032,120.574426" id="路径" fill="url(#linearGradient-7)"></path>
                            </g>
                        </g>
                    </g>
                    <g id="doctor-looking-at-medical-report" transform="translate(601.000000, 390.000000) scale(-1, 1) translate(-601.000000, -390.000000) translate(485.000000, 160.000000)">
                        <path d="M188.75,96.14 C192.293878,85.8634406 194.069052,75.0602333 194,64.19 C193.64,47.1 187.52,41.52 187.52,41.52 C187.52,41.52 216.13,35.82 220.44,65.12 C224.75,94.42 231,91.36 231,91.36 C231,91.36 234.24,129.5 213.55,145.69 C213.55,145.69 200.15,129.52 196.24,113.95" id="路径" fill="#7BC0EA" fill-rule="nonzero"></path>
                        <path d="M187.37,109.67 C186.280061,106.104775 186.280061,102.295225 187.37,98.73 C189.19,92.79 199.54,88.66 199,91.53 C198.46,94.4 195.4,96.93 195.4,96.93 C195.4,96.93 203.85,104.37 197.2,117.8" id="路径" fill="#F9AA8F" fill-rule="nonzero"></path>
                        <path d="M86.81,65.12 C86.81,65.12 108.69,74.12 135.68,108.63 C158.68,138.04 180.57,117.4 186.56,110.63 C187.738533,109.295579 189.632956,108.854082 191.28,109.53 C194.774435,110.801905 197.12678,114.092009 197.2,117.81 C197.2,117.81 171.47,185.81 122.9,152.35" id="路径" fill="#40D3BA" fill-rule="nonzero"></path>
                        <path d="M165.79,123.57 C157.01,125.21 146.46,122.44 135.67,108.63 C113.41,80.14 94.67,69.05 88.74,66.04 L89.41,71.41 L122.9,152.34 C126.305215,154.711934 129.948199,156.72278 133.77,158.34 L134.25,158.53 C134.81,158.76 135.37,158.98 135.93,159.18 C141.65,160.9 148.64,157.38 143.93,143.47 C139.33,130 161.22,124.55 165.79,123.57 Z" id="路径" fill="url(#linearGradient-8)" fill-rule="nonzero"></path>
                        <path d="M45.36,430.48 L43.93,455.67 C43.8833701,456.532743 44.1931596,457.376766 44.7868476,458.004488 C45.3805355,458.632209 46.2059995,458.988516 47.07,458.99 L60.07,458.99 C60.6129811,458.983762 61.0939202,458.638162 61.273007,458.125526 C61.4520937,457.612891 61.2909792,457.042993 60.87,456.7 L54.8,451.87 C53.8582386,451.11145 53.4639756,449.861637 53.8,448.7 L59.8,428.81" id="路径" fill="#6161AD" fill-rule="nonzero"></path>
                        <path d="M91.91,427.29 L93.26,456 C93.3399441,457.676994 94.721105,458.996575 96.4,459 L109.68,459 C110.222981,458.993762 110.70392,458.648162 110.883007,458.135526 C111.062094,457.622891 110.900979,457.052993 110.48,456.71 L104.23,451.71 C103.38202,451.024962 102.972372,449.933845 103.16,448.86 L106.61,427.67" id="路径" fill="#6161AD" fill-rule="nonzero"></path>
                        <path d="M84,284.76 L91,429 C91,429 101,432.24 106.72,429 C106.72,429 138.21,284.35 131.19,215.27 C124.17,146.19 63.72,237.4 63.72,237.4" id="路径" fill="#40D3BA" fill-rule="nonzero"></path>
                        <path d="M84,284.76 L91,429 C91,429 101,432.24 106.72,429 C106.72,429 138.21,284.35 131.19,215.27 C124.17,146.19 63.72,237.4 63.72,237.4" id="路径" fill="url(#linearGradient-9)" fill-rule="nonzero"></path>
                        <path d="M46.81,219.63 L42.49,430.48 C42.49,430.48 51.3,434.8 59.22,430.48 C59.22,430.48 108.79,291.59 104.88,215.31" id="路径" fill="#40D3BA" fill-rule="nonzero"></path>
                        <path d="M104.87,215.32 L46.81,219.64 L44.81,316.5 L44.81,316.5 C45.25,295.23 51.06,279.5 77.73,279.5 C95.47,279.5 101.16,265.72 102.99,256.5 C104.73,241.67 105.5,227.67 104.87,215.32 Z" id="路径" fill="url(#linearGradient-10)" fill-rule="nonzero"></path>
                        <path d="M49.81,61.49 C49.81,61.49 32.36,65 31.51,89.06 C30.65,113.24 40.14,186.49 36.89,218.97 C36.6539278,221.195683 38.0101448,223.28217 40.14,223.97 C54.76,228.72 108.82,243.97 132.03,218.91 C132.92363,217.953298 133.414282,216.689064 133.4,215.38 C133.17,199 130,83.81 86.81,65.12" id="路径" fill="#40D3BA" fill-rule="nonzero"></path>
                        <path d="M51.08,204.13 L69.19,186.46 C69.19,186.46 85.48,164.58 63.71,156.67 C41.94,148.76 57.71,100.24 57.71,100.24 L32.28,112.24 C34.33,144.58 39.41,193.91 36.9,218.98 C36.6639278,221.205683 38.0201448,223.29217 40.15,223.98 C43.01,224.91 47.38,226.24 52.72,227.59 C31.87,221.11 51.08,204.13 51.08,204.13 Z" id="路径" fill="url(#linearGradient-11)" fill-rule="nonzero"></path>
                        <g id="_Group_" transform="translate(46.000000, 2.000000)" fill-rule="nonzero">
                            <path d="M0.81,60.5 C3.14,61.81 69.89,114.91 43.43,65.63 C42.862057,64.5297307 41.9436903,63.6500691 40.82,63.13 C35,60.55 16.05,53.23 0.81,60.5 Z" id="_Path_" fill="#DFECF4"></path>
                            <path d="M56.11,19.56 C53.89,8.42 46.49,0.27 34.97,0.27 C26.4525278,0.27 18.9206537,4.72385776 14.349808,11.5466502 C11.4398439,15.8902842 9.73,21.1940596 9.73,26.92 C9.73,30.77 11.65,33.92 13.04,37.2 C15.04,41.9 14.04,47.78 12.04,52.47 C10.23,56.66 7.81,58.17 7.81,58.17 C32.7,80.17 47.33,80.45 41.96,69.98 C40.05,66.25 38.64,64.5 37.81,57.25 C37.5967863,55.2137166 37.81,51.2179729 40.87,52.79 C43.2835132,54.0299046 47.6790949,55.1156892 49.6228676,53.58 C52.4618004,51.3370842 52.6148125,44.1033699 54.17,40.53 C54.6256551,39.4960144 55.4287168,38.6540378 56.44,38.15 C57.1292259,37.8238903 57.7716156,37.4068415 58.35,36.91 C60.28,35.1 56.11,19.56 56.11,19.56 Z" id="路径" fill="#F9AA8F"></path>
                        </g>
                        <path d="M72.54,33.25 C73.3113892,33.2527696 73.9791007,32.7144272 74.14,31.96 C74.58,29.84 75.85,25.77 79.14,24.96 C83.64,23.88 115.178746,38.7383871 108.698746,17.5083871 C106.711773,10.9971205 99.4240218,3.50800812 89.0871413,1.56258065 C74.5849161,-1.16677544 58.8940196,4.84646849 56.727949,14.4916129 C52.267949,34.3616129 61.29,37.11 60.16,46.69 C60.16,46.69 63.16,40.79 60.74,31.17 C58.42,21.96 70.67,20.25 70.94,31.61 C70.9449757,32.4982122 71.6521814,33.223098 72.54,33.25 Z" id="路径" fill="#0D439B" fill-rule="nonzero"></path>
                        <path d="M42.49,65.3 C42.49,65.3 -2,92.79 0.92,146.86 C3.84,200.93 55.61,199.13 55.61,199.13 C55.61,199.13 63.89,195.63 66.4,189.46 C66.4,189.46 18.19,168.93 42.47,132.22 C66.75,95.51 62.1,74 42.49,65.3 Z" id="路径" fill="#40D3BA" fill-rule="nonzero"></path>
                        <path d="M65.89,184.89 C61.53,192.89 52.89,198.51 47.83,201.25 C47.3610883,201.502722 47.0937971,202.015932 47.1555242,202.545022 C47.2172514,203.074112 47.5955052,203.512009 48.11,203.65 C48.93,203.86 49.58,204.08 50,204.23 C50.3570289,204.358377 50.7526123,204.321749 51.08,204.13 C53.65,202.66 64.68,195.93 69.19,186.46 C69.3321843,186.148409 69.3446202,185.793065 69.2245665,185.472297 C69.1045128,185.151528 68.8618255,184.891669 68.55,184.75 L67.6,184.3 C66.9639057,184.008396 66.2109401,184.268191 65.89,184.89 L65.89,184.89 Z" id="路径" fill="#5AEDD1" fill-rule="nonzero"></path>
                        <circle id="椭圆形" fill="#5AEDD1" fill-rule="nonzero" cx="94.03" cy="116.46" r="1.35"></circle>
                        <circle id="椭圆形" fill="#5AEDD1" fill-rule="nonzero" cx="97.95" cy="142.54" r="1.35"></circle>
                        <circle id="椭圆形" fill="#5AEDD1" fill-rule="nonzero" cx="100.65" cy="172.32" r="1.35"></circle>
                        <circle id="椭圆形" fill="#5AEDD1" fill-rule="nonzero" cx="102" cy="208.53" r="1.35"></circle>
                        <path d="M91.41,156.26 C90.7087978,155.592299 90.4188129,154.600245 90.65,153.66 C92.39,146.36 92.11,137.73 89.76,129.1 C84.43,109.53 69.93,96.37 57.44,99.78 C44.95,103.19 39.12,121.87 44.44,141.44 C46.79,150.06 50.93,157.65 56.13,163.06 C56.8079062,163.757748 57.0598006,164.765326 56.79,165.7 C56.4077199,166.975001 56.6649758,168.35614 57.4806655,169.408003 C58.2963552,170.459865 59.5699729,171.052845 60.9,171 C62.7599881,170.944528 64.3544315,169.65491 64.7975102,167.847615 C65.2405889,166.040321 64.4234218,164.159469 62.8,163.25 C56.55,158.56 51.27,150.05 48.63,140.34 C43.93,123.07 48.39,106.75 58.63,103.98 C68.87,101.21 80.94,112.98 85.63,130.27 C88.28,139.98 88.04,149.99 85.03,157.2 C84.2692737,158.49666 84.2692737,160.10334 85.03,161.4 C85.7911467,162.682154 87.1897282,163.4485 88.68,163.4 C89.9538656,163.371179 91.1434975,162.757371 91.9051972,161.735912 C92.6668968,160.714453 92.9158016,159.399147 92.58,158.17 C92.3773111,157.436003 91.9718011,156.774017 91.41,156.26 Z" id="路径" fill="#DFECF4" fill-rule="nonzero"></path>
                        <path d="M55.08,102 C55.08,102 34.3,56.75 56.34,55.58" id="路径" stroke="#DFECF4" stroke-linecap="round"></path>
                        <path d="M85.37,61.65 C85.37,61.65 107.7,62.5 107.97,99.24 C108.24,135.98 116.34,137.6 116.34,137.6" id="路径" stroke="#DFECF4" stroke-linecap="round"></path>
                        <circle id="椭圆形" fill="#DFECF4" fill-rule="nonzero" transform="translate(113.841182, 134.337832) rotate(-27.630000) translate(-113.841182, -134.337832) " cx="113.841182" cy="134.337832" r="3.81"></circle>
                        <circle id="椭圆形" fill="#DFECF4" fill-rule="nonzero" transform="translate(113.841182, 134.337832) rotate(-27.630000) translate(-113.841182, -134.337832) " cx="113.841182" cy="134.337832" r="3.81"></circle>
                        <circle id="椭圆形" fill="#DFECF4" fill-rule="nonzero" transform="translate(116.592315, 139.583787) rotate(-27.630000) translate(-116.592315, -139.583787) " cx="116.592315" cy="139.583787" r="7.5"></circle>
                    </g>
                    <g id="man-with-hurt-arm" transform="translate(308.000000, 383.000000) scale(-1, 1) translate(-308.000000, -383.000000) translate(215.000000, 153.000000)">
                        <path d="M13.33,117.07 C13.33,117.07 21.33,149.47 7.59,190.98 C-6.15,232.49 7.74,257.68 12.19,260.65 C14.58,262.24 16.26,257.87 17.3,253.48 C17.425287,252.91554 17.8525,252.466673 18.4100813,252.313652 C18.9676626,252.160632 19.5641463,252.32856 19.96,252.75 C20.73,253.62 21.96,253.62 23.86,251.64 C29.55,245.74 23.64,241.09 26.09,222.93 C28.54,204.77 41.9,192.15 44.62,178.74 C47.34,165.33 49.55,115.18 49.55,115.18" id="路径" fill="#F9AA8F" fill-rule="nonzero"></path>
                        <path d="M44.61,178.75 C46.2,170.86 47.61,150.26 48.53,134.63 L48.25,134.17 L20.33,118.75 L13.91,120 C15.6724374,130.880514 16.1056149,141.934936 15.2,152.92 L15.2,152.92 C15.2,152.92 23.43,156.92 28.65,156.44 C33.87,155.96 21.07,188.09 21.07,188.09 C21.07,188.09 27.21,199.5 21.92,211 C16.63,222.5 25.92,240.06 21.92,243.69 C17.92,247.32 14.62,256.69 15.92,258 L15.92,258 C16.5106332,256.533648 16.9821588,255.02209 17.33,253.48 C17.455287,252.91554 17.8825,252.466673 18.4400813,252.313652 C18.9976626,252.160632 19.5941463,252.32856 19.99,252.75 C20.76,253.62 21.99,253.62 23.89,251.64 C29.58,245.74 23.67,241.09 26.12,222.93 C28.57,204.77 41.9,192.16 44.61,178.75 Z" id="路径" fill="url(#linearGradient-12)" fill-rule="nonzero"></path>
                        <path d="M61.76,69.18 C61.76,69.18 5.83,71.44 0.82,130.18 C0.520362683,133.095514 2.06876653,135.889026 4.7,137.18 C19.7242404,144.156868 36.3813875,146.855782 52.84,144.98" id="路径" fill="url(#linearGradient-13)" fill-rule="nonzero"></path>
                        <path d="M48.35,71.58 C47.69,71.76 47.02,71.96 46.35,72.17 C16.46,83.35 13.78,114.83 15.12,129.24 C16.12,139.62 12.12,140 9.85,139.4 C23.5287925,144.679947 38.2773715,146.590403 52.85,144.97 L60.23,82.31 C58.46,74.65 54.85,70.15 48.35,71.58 Z" id="路径" fill="url(#linearGradient-14)" fill-rule="nonzero"></path>
                        <path d="M107.22,225.43 L72.5,179.67 L46.33,223.82 L45.33,421.51 C45.33,424.083647 47.4163531,426.17 49.99,426.17 L65.22,426.17 L88.63,323.76 L108.96,422.24 C109.462376,424.533169 111.492448,426.168043 113.84,426.17 L129.57,426.17 L143.86,205.59 L107.22,225.43 Z" id="路径" fill="url(#linearGradient-15)" fill-rule="nonzero"></path>
                        <path d="M57.92,207.28 L56.17,207.23 L56.77,206.23 C57.1795045,206.550214 57.5639558,206.901235 57.92,207.28 Z" id="路径" fill="url(#linearGradient-16)" fill-rule="nonzero"></path>
                        <path d="M93,345.1 L88.59,323.67 L65.18,426 L50,426 C48.7731053,426.018697 47.5895902,425.546441 46.7126051,424.688235 C45.8356201,423.830029 45.33786,422.657012 45.33,421.43 L46.38,223.67 L56.16,207 L56.16,207 C56.74,207 57.32,207.16 57.91,207.16 C65.01,214.71 71.74,239.68 75.58,256.16 C77.58,265.02 78.86,271.47 78.86,271.47 L93,345.1 Z" id="路径" fill="url(#linearGradient-17)" fill-rule="nonzero"></path>
                        <path d="M143,218.53 L129.53,426 L121.53,426 C121.16994,425.999179 120.864255,425.73595 120.81,425.38 C121.16,423.64 124.99,254.68 94.06,256.81 C87.8951416,257.243351 81.7019508,257.035571 75.58,256.19 C71.74,239.71 65.01,214.81 57.91,207.26 C69.12,207.62 81.78,208.26 91.91,208.74 L94.67,208.89 L107.22,225.42 L112.35,222.64 L127.59,214.34 L143,218.53 Z" id="路径" fill="url(#linearGradient-18)" fill-rule="nonzero"></path>
                        <path d="M49.56,426.17 L49.56,437.93 C49.5618231,442.042131 46.9988018,445.718989 43.14,447.14 C39.72,448.4 35.37,449.44 31.26,448.81 C25.6,447.95 24.78,452.73 24.89,456.11 C24.9333175,457.858683 26.3607874,459.255121 28.11,459.26 L52.28,459.26 C56.0078409,459.257892 59.213108,456.61826 59.93,452.96 L65.17,426.16" id="路径" fill="#8DA4D4" fill-rule="nonzero"></path>
                        <path d="M113.77,426.17 L115.2,441.26 C115.388939,443.1512 114.811742,445.039196 113.597589,446.501443 C112.383435,447.963689 110.633705,448.878092 108.74,449.04 C107.103618,449.153478 105.459629,449.079666 103.84,448.82 C98.18,447.96 97.36,452.74 97.47,456.12 C97.5133175,457.868683 98.9407874,459.265121 100.69,459.27 L120.69,459.27 C124.875733,459.267941 128.313644,455.962426 128.48,451.78 L129.48,426.17" id="路径" fill="#8DA4D4" fill-rule="nonzero"></path>
                        <path d="M61.76,69.18 C61.76,69.18 31.32,69.06 36.15,127.55 C40.95,185.69 40.44,213.85 39.94,223.89 C39.7887013,226.845151 41.2608728,229.647644 43.78,231.2 C49.67,234.84 61.72,240.98 79.23,243.62 C81.0960915,243.887376 82.9916114,243.397337 84.4943038,242.259048 C85.9969962,241.120758 86.9820394,239.42877 87.23,237.56 L91.38,206.94 L99.93,238.37 C100.893099,241.909138 104.399632,244.12676 108.01,243.48 C119.64,241.42 143.42,235.82 148.35,223.83 C152.35,214.22 165.08,73.03 110.83,69.37" id="路径" fill="url(#linearGradient-19)" fill-rule="nonzero"></path>
                        <path d="M65.18,78.45 C65.18,78.45 67.18,94.45 80.43,101.07 C93.68,107.69 87.37,153.41 89.81,177.24 C92.25,201.07 146.16,166.66 146.16,166.66 L128.49,89.56 L115.94,72.84 L65.18,78.45 Z" id="路径" fill="url(#linearGradient-20)" fill-rule="nonzero"></path>
                        <g id="编组" opacity="0.49" transform="translate(39.000000, 169.000000)" fill="url(#linearGradient-21)" fill-rule="nonzero">
                            <path d="M113.51,0.53 L12.65,6.2 L0.4,7.85 C0.85,17.54 1.08,25.63 1.18,32.32 L1.18,32.32 C1.18,32.32 50.8,31.54 51.33,33.63 C51.86,35.72 53.83,43.29 53.84,43.32 L60.92,69.32 C61.8830989,72.859138 65.3896317,75.0767596 69,74.43 C76.2517974,73.1919047 83.3820472,71.3248566 90.31,68.85 C84.76,70.59 74.77,71.59 73.31,57.04 C71.22,36.74 110.9,43.16 112.89,25.71 C113.3,18.17 113.57,9.58 113.51,0.53 Z" id="路径"></path>
                        </g>
                        <path d="M112.46,71.45 C112.46,71.45 140.8,71.65 170.13,111.87 C199.46,152.09 161.13,195.22 116.27,194.62 C71.41,194.02 49.36,194.62 49.36,194.62 C49.36,194.62 19.91,197.17 26.61,179.68 C33.31,162.19 140.91,174.61 136.72,150.55 C132.53,126.49 98.64,134.06 112.46,71.45 Z" id="路径" fill="#F9AA8F" fill-rule="nonzero"></path>
                        <path d="M178.64,128.83 L134.06,143.07 C134.373333,143.623333 134.67,144.2 134.95,144.8 C139.8,148.44 152.09,158.45 150.95,165.88 C149.56,175.11 133,177.24 133,177.24 L133,192.79 C163.88,185.6 187.09,158.19 178.64,128.83 Z" id="路径" fill="url(#linearGradient-22)" fill-rule="nonzero"></path>
                        <path d="M136.72,187.18 C136.72,177.34 132.9,168.18 126.28,160.32 C125.235104,159.076202 123.515132,158.634153 122,159.22 C96.13,169.48 27.07,164.69 21.4,179.49 C15.15,195.79 38.4,195.75 44.28,195.49 C45.68,195.43 47.07,195.37 48.47,195.35 C56.05,195.21 78.72,194.9 116.86,195.41 C122.472118,195.479489 128.074176,194.915929 133.56,193.73 C135.182641,193.385476 136.395895,192.030676 136.56,190.38 C136.67,189.3 136.72,188.24 136.72,187.18 Z" id="路径" fill="#D6EFFA" fill-rule="nonzero"></path>
                        <path d="M177.36,111.69 C148,71.48 110.83,69.36 110.83,69.36 C98.78,123.99 119.23,126.21 127.42,141.86 C128.224509,143.358283 129.72661,144.353424 131.42,144.51 C134.256401,144.815837 137.107158,144.969391 139.96,144.97 C154.96,144.97 168.39,144.97 182.5,133.97 C184.796382,132.168757 185.769657,129.15398 184.96,126.35 C183.347929,121.038287 180.77165,116.06878 177.36,111.69 L177.36,111.69 Z" id="路径" fill="url(#linearGradient-23)" fill-rule="nonzero"></path>
                        <path d="M54.27,165.79 C54.27,165.79 29.44,64.91 74.39,59.43 C110.3,55.05 119.89,60.21 114.81,100.98 C109.73,141.75 107.65,158.98 107.65,158.98" id="路径" stroke="#D6EFFA" stroke-width="3"></path>
                        <path d="M70.56,123.47 L68,123.47 C67.2820298,123.47 66.7,122.88797 66.7,122.17 L66.7,119.63 C66.7,119.285219 66.5630361,118.954558 66.3192388,118.710761 C66.0754415,118.466964 65.7447814,118.33 65.4,118.33 L62.8,118.33 C62.4552186,118.33 62.1245585,118.466964 61.8807612,118.710761 C61.6369639,118.954558 61.5,119.285219 61.5,119.63 L61.5,122.17 C61.5,122.88797 60.9179702,123.47 60.2,123.47 L57.66,123.47 C57.3152186,123.47 56.9845585,123.606964 56.7407612,123.850761 C56.4969639,124.094558 56.36,124.425219 56.36,124.77 L56.36,127.4 C56.36,128.11797 56.9420298,128.7 57.66,128.7 L60.2,128.7 C60.9179702,128.7 61.5,129.28203 61.5,130 L61.5,132.54 C61.5,133.25797 62.0820298,133.84 62.8,133.84 L65.43,133.84 C65.7747814,133.84 66.1054415,133.703036 66.3492388,133.459239 C66.5930361,133.215442 66.73,132.884781 66.73,132.54 L66.73,130 C66.73,129.28203 67.3120298,128.7 68.03,128.7 L70.57,128.7 C71.2879702,128.7 71.87,128.11797 71.87,127.4 L71.87,124.77 C71.8700103,124.423479 71.7316745,124.091294 71.4857101,123.847208 C71.2397457,123.603121 70.9065108,123.467334 70.56,123.47 L70.56,123.47 Z" id="路径" fill="#F9F9F9" fill-rule="nonzero"></path>
                        <path d="M136.58,190.35 C136.67,189.3 136.72,188.24 136.72,187.17 C136.72,177.33 132.9,168.17 126.28,160.31 C125.235104,159.066202 123.515132,158.624153 122,159.21 C120.22365,159.901452 118.410966,160.495664 116.57,160.99 L116.57,160.99 C121.824489,164.245502 125.410145,169.618514 126.4,175.72 C127.97,185.91 114.4,186.72 97.91,185.39 C81.42,184.06 57.91,185.65 37.02,190.39 C26.65,192.72 22.54,190.68 21.02,188.02 C24.45,195.78 39.65,195.71 44.27,195.51 C45.67,195.45 47.06,195.39 48.46,195.37 C56.04,195.23 78.71,194.92 116.85,195.43 C122.462118,195.499489 128.064176,194.935929 133.55,193.75 C135.200753,193.411438 136.433023,192.028692 136.58,190.35 Z" id="路径" fill="url(#linearGradient-24)" fill-rule="nonzero"></path>
                        <path d="M110.95,158 C109.642041,156.554596 107.580076,156.061949 105.76,156.76 C93.23,161.54 72.42,163.54 51.42,165.3 C50.7002284,165.368933 50.0737104,165.820998 49.7813931,166.48234 C49.4890757,167.143682 49.5764831,167.911307 50.01,168.49 C60.67,181.15 60.7,189.33 59.23,195.68 C59.0547881,196.505203 59.2680238,197.36517 59.8084666,198.012921 C60.3489095,198.660672 61.1567574,199.024531 62,199 C72.74,199.04 85.24,199.143333 99.5,199.31 C106.378914,199.386114 113.245777,198.715522 119.98,197.31 C121.93809,196.946017 123.430331,195.348346 123.66,193.37 C123.77,192.13 123.83,190.89 123.83,189.63 C123.79,178.06 119.09,167.22 110.95,158 Z" id="路径" fill="#8DA4D4" fill-rule="nonzero"></path>
                        <path d="M103.92,184.69 C88.71,183.22 62.73,186.18 59.61,186.54 C60.0950196,189.571933 59.9623649,192.670611 59.22,195.65 C59.0335798,196.48137 59.2430409,197.352195 59.7871385,198.007852 C60.3312361,198.663509 61.1485118,199.029939 62,199 C72.74,199.04 85.24,199.143333 99.5,199.31 C106.378914,199.386114 113.245777,198.715522 119.98,197.31 C121.93809,196.946017 123.430331,195.348346 123.66,193.37 C123.77,192.13 123.83,190.89 123.83,189.63 C123.82886,187.433475 123.658355,185.240308 123.32,183.07 C123.32,183.07 120,186.25 103.92,184.69 Z" id="路径" fill="url(#linearGradient-25)" fill-rule="nonzero"></path>
                        <path d="M97.55,40.87 L97.55,40.87 C100.42,36.81 102,32.28 101.49,27.69 C100.183327,16.3814184 91.2998584,7.44007739 80,6.06 C68.85,4.75 60.07,10.63 54.68,20.17 L54.68,20.17 C54.68,20.17 47.58,31.17 49.74,36.08 C50.1406053,37.0245781 50.6947575,37.896354 51.38,38.66 C54.1779006,41.6823427 56.118055,45.3969445 57,49.42 C58.15,54.75 59.79,56.19 63.83,56.58 L63.83,56.58 L64.39,56.58 C66.26,56.77 71.94,57.78 71.11,63.04 C70.11,69.31 61.75,69.14 61.75,69.14 C61.75,69.14 66.54,93.28 87.54,93.14 C106.8,93.05 110.82,69.27 110.82,69.27 C110.82,69.27 88.94,64.3 97.55,40.87 Z" id="路径" fill="#F9AA8F" fill-rule="nonzero"></path>
                        <g id="编组" opacity="0.49" transform="translate(50.000000, 10.000000)" fill="url(#linearGradient-26)" fill-rule="nonzero">
                            <path d="M47.55,30.87 L47.55,30.87 C50.42,26.81 52,22.28 51.49,17.69 C51.1399003,14.5984215 50.1959443,11.6035685 48.71,8.87 L13.36,0.26 C10.1606423,2.61576479 7.46448395,5.58731884 5.43,9 C6.16,10 7.43,11.77 8.89,13.48 C10.83,15.76 5.41,18.79 4.8,23.76 C4.19,28.73 0.62,27.76 0.04,26.67 C0.40511447,27.3949671 0.865895924,28.0676408 1.41,28.67 C3.50761,30.9615628 5.12296585,33.6515554 6.16,36.58 L6.16,36.58 C6.16,36.58 5.16,17.58 15.16,16.42 C25.16,15.26 29.45,25.74 25.35,35.85 C21.78,44.67 18.74,47.21 13.68,46.58 L13.84,46.58 L14.4,46.58 C15.424476,46.6863213 16.4320173,46.9180559 17.4,47.27 C19.3037694,47.5845137 21.2232941,47.7948269 23.15,47.9 C28.73,48.16 40.4,56 35.43,66.46 C30.46,76.92 38.57,75.61 39.43,78.83 C40.18,81.59 36.52,83.13 33.35,82.83 C34.7250859,83.0554194 36.116572,83.1658017 37.51,83.16 C56.77,83.07 60.79,59.29 60.79,59.29 C60.79,59.29 38.94,54.3 47.55,30.87 Z" id="路径"></path>
                        </g>
                        <path d="M53,10.45 C53,10.45 57.36,20.79 70.77,20.9 C80.93,20.98 83.93,27.54 84.08,31.32 C84.08,32.4245695 84.9754305,33.32 86.08,33.32 L86.08,33.32 C86.9361536,33.3179294 87.6960326,32.7711381 87.97,31.96 C88.54,30.13 90.32,26.35 94.83,27.57 C102.33,29.57 97.61,40.91 97.61,40.91 C97.61,40.91 117.34,17.81 101.61,8.06 C85.88,-1.69 50.52,-2.44 53,10.45 Z" id="路径" fill="#D84F37" fill-rule="nonzero"></path>
                        <path d="M73,21.06 C81.32,22.06 83.88,27.85 84,31.32 C84,32.4245695 84.8954305,33.32 86,33.32 C86.8561536,33.3179294 87.6160326,32.7711381 87.89,31.96 C88.46,30.13 90.24,26.35 94.75,27.57 C102.24,29.57 97.53,40.91 97.53,40.91 C97.53,40.91 117.26,17.81 101.53,8.06 C99.907365,7.06736022 98.2087308,6.20466806 96.45,5.48 C107.21,10.15 96.18,19.16 85.82,11.04 C75.46,2.92 77.2,9.79 79.2,15.42 C80.83,19.83 75.37,20.83 73,21.06 Z" id="路径" fill="#D84F37" fill-rule="nonzero"></path>
                    </g>
                </g>
            </g>
        </g>
    </g>
</svg>